<mxfile host="app.diagrams.net" modified="2023-09-19T02:26:49.058Z" agent="Mozilla/5.0 (X11; Linux x86_64) AppleWebKit/537.36 (KHTML, like Gecko) Chrome/109.0.0.0 Safari/537.36" etag="RVd42AqV7L6AbAXyjRne" version="21.7.5" type="device">
  <diagram name="Page-1" id="fMtQGgiWAxwI3SxDrmNZ">
    <mxGraphModel dx="1054" dy="566" grid="1" gridSize="10" guides="1" tooltips="1" connect="1" arrows="1" fold="1" page="1" pageScale="1" pageWidth="850" pageHeight="1100" math="0" shadow="0">
      <root>
        <mxCell id="0" />
        <mxCell id="1" parent="0" />
        <mxCell id="AcWjnE61uEaoLL16DM_o-3" value="" style="rounded=0;whiteSpace=wrap;html=1;" vertex="1" parent="1">
          <mxGeometry x="280" y="100" width="250" height="400" as="geometry" />
        </mxCell>
        <mxCell id="AcWjnE61uEaoLL16DM_o-4" value="" style="ellipse;whiteSpace=wrap;html=1;" vertex="1" parent="1">
          <mxGeometry x="345" y="140" width="135" height="80" as="geometry" />
        </mxCell>
        <mxCell id="AcWjnE61uEaoLL16DM_o-5" value="mengisi buku catatan" style="text;html=1;strokeColor=none;fillColor=none;align=center;verticalAlign=middle;whiteSpace=wrap;rounded=0;" vertex="1" parent="1">
          <mxGeometry x="350" y="155" width="120" height="40" as="geometry" />
        </mxCell>
        <mxCell id="AcWjnE61uEaoLL16DM_o-6" value="" style="ellipse;whiteSpace=wrap;html=1;" vertex="1" parent="1">
          <mxGeometry x="345" y="260" width="135" height="80" as="geometry" />
        </mxCell>
        <mxCell id="AcWjnE61uEaoLL16DM_o-7" value="membaca buku catatan" style="text;html=1;strokeColor=none;fillColor=none;align=center;verticalAlign=middle;whiteSpace=wrap;rounded=0;" vertex="1" parent="1">
          <mxGeometry x="360" y="285" width="110" height="30" as="geometry" />
        </mxCell>
        <mxCell id="AcWjnE61uEaoLL16DM_o-8" value="" style="ellipse;whiteSpace=wrap;html=1;" vertex="1" parent="1">
          <mxGeometry x="345" y="380" width="140" height="80" as="geometry" />
        </mxCell>
        <mxCell id="AcWjnE61uEaoLL16DM_o-9" value="rekap buku catatan" style="text;html=1;strokeColor=none;fillColor=none;align=center;verticalAlign=middle;whiteSpace=wrap;rounded=0;" vertex="1" parent="1">
          <mxGeometry x="360" y="405" width="110" height="35" as="geometry" />
        </mxCell>
        <mxCell id="AcWjnE61uEaoLL16DM_o-10" value="catatan pengunjung perpus" style="text;html=1;strokeColor=none;fillColor=none;align=center;verticalAlign=middle;whiteSpace=wrap;rounded=0;" vertex="1" parent="1">
          <mxGeometry x="325" y="85" width="175" height="70" as="geometry" />
        </mxCell>
        <mxCell id="AcWjnE61uEaoLL16DM_o-12" value="anggota" style="shape=umlActor;verticalLabelPosition=bottom;verticalAlign=top;html=1;outlineConnect=0;" vertex="1" parent="1">
          <mxGeometry x="600" y="240" width="60" height="120" as="geometry" />
        </mxCell>
        <mxCell id="AcWjnE61uEaoLL16DM_o-17" value="perputakawan" style="shape=umlActor;verticalLabelPosition=bottom;verticalAlign=top;html=1;outlineConnect=0;" vertex="1" parent="1">
          <mxGeometry x="140" y="250" width="60" height="110" as="geometry" />
        </mxCell>
        <mxCell id="AcWjnE61uEaoLL16DM_o-27" value="" style="endArrow=none;html=1;rounded=0;exitX=0.978;exitY=0.638;exitDx=0;exitDy=0;exitPerimeter=0;" edge="1" parent="1" source="AcWjnE61uEaoLL16DM_o-4" target="AcWjnE61uEaoLL16DM_o-12">
          <mxGeometry width="50" height="50" relative="1" as="geometry">
            <mxPoint x="550" y="190" as="sourcePoint" />
            <mxPoint x="700" y="430" as="targetPoint" />
          </mxGeometry>
        </mxCell>
        <mxCell id="AcWjnE61uEaoLL16DM_o-28" value="" style="endArrow=none;html=1;rounded=0;exitX=0.111;exitY=0.25;exitDx=0;exitDy=0;exitPerimeter=0;" edge="1" parent="1" source="AcWjnE61uEaoLL16DM_o-6" target="AcWjnE61uEaoLL16DM_o-17">
          <mxGeometry width="50" height="50" relative="1" as="geometry">
            <mxPoint x="400" y="320" as="sourcePoint" />
            <mxPoint x="450" y="270" as="targetPoint" />
          </mxGeometry>
        </mxCell>
        <mxCell id="AcWjnE61uEaoLL16DM_o-30" value="" style="endArrow=none;html=1;rounded=0;" edge="1" parent="1" source="AcWjnE61uEaoLL16DM_o-17" target="AcWjnE61uEaoLL16DM_o-8">
          <mxGeometry width="50" height="50" relative="1" as="geometry">
            <mxPoint x="210" y="350" as="sourcePoint" />
            <mxPoint x="260" y="300" as="targetPoint" />
          </mxGeometry>
        </mxCell>
      </root>
    </mxGraphModel>
  </diagram>
</mxfile>
